<svg width="25" height="28" viewBox="0 0 25 28" fill="none" xmlns="http://www.w3.org/2000/svg">
<path d="M8.33333 12.6H5.55556V15.4H8.33333V12.6ZM13.8889 12.6H11.1111V15.4H13.8889V12.6ZM19.4444 12.6H16.6667V15.4H19.4444V12.6ZM22.2222 2.8H20.8333V0H18.0556V2.8H6.94444V0H4.16667V2.8H2.77778C1.23611 2.8 0 4.06 0 5.6V25.2C0 25.9426 0.292658 26.6548 0.813592 27.1799C1.33453 27.705 2.04107 28 2.77778 28H22.2222C22.9589 28 23.6655 27.705 24.1864 27.1799C24.7073 26.6548 25 25.9426 25 25.2V5.6C25 4.85739 24.7073 4.1452 24.1864 3.6201C23.6655 3.095 22.9589 2.8 22.2222 2.8ZM22.2222 25.2H2.77778V9.8H22.2222V25.2Z" fill="#0A877C"/>
</svg>
