<svg width="252" height="263" viewBox="0 0 252 263" fill="none" xmlns="http://www.w3.org/2000/svg">
<g filter="url(#filter0_d_269_1762)">
<path d="M237 140.061C237 83.824 195.183 37.2005 141.083 29.7957L133.748 10H125.536L117.9 29.0641C60.4618 33.2348 15 81.4241 15 140.061C14.9826 167.666 25.225 194.282 43.7191 214.691L33.1291 241.197H67.9035C84.4144 250.983 105.46 215.735 125.995 215.735C146.86 215.735 168.286 251.286 184.982 241.197H219.455L209.227 213.615C227.134 193.342 237.017 167.17 237 140.061ZM231.946 140.061C231.966 164.993 223.207 189.127 207.219 208.191L143.095 35.2247C193.416 43.4449 231.946 87.3237 231.946 140.061ZM128.156 69.7833L160.455 170.202H92.9087L128.156 69.7833ZM20.0539 140.061C20.0539 84.9377 62.1449 39.4932 115.8 34.3299L45.8241 209.449C29.1831 190.204 20.03 165.558 20.0539 140.061ZM126 210.665C106.063 210.665 85.5597 245.965 69.6098 236.318L84.6787 193.092H169.306L183.373 236.248C167.224 246.263 146.336 210.665 126 210.665Z" fill="#008F82"/>
</g>
<defs>
<filter id="filter0_d_269_1762" x="0" y="0" width="252" height="263" filterUnits="userSpaceOnUse" color-interpolation-filters="sRGB">
<feFlood flood-opacity="0" result="BackgroundImageFix"/>
<feColorMatrix in="SourceAlpha" type="matrix" values="0 0 0 0 0 0 0 0 0 0 0 0 0 0 0 0 0 0 127 0" result="hardAlpha"/>
<feOffset dy="5"/>
<feGaussianBlur stdDeviation="7.5"/>
<feComposite in2="hardAlpha" operator="out"/>
<feColorMatrix type="matrix" values="0 0 0 0 0 0 0 0 0 0 0 0 0 0 0 0 0 0 0.3 0"/>
<feBlend mode="normal" in2="BackgroundImageFix" result="effect1_dropShadow_269_1762"/>
<feBlend mode="normal" in="SourceGraphic" in2="effect1_dropShadow_269_1762" result="shape"/>
</filter>
</defs>
</svg>
