<svg width="38" height="41" viewBox="0 0 38 41" fill="none" xmlns="http://www.w3.org/2000/svg">
<path d="M38 22.8863C38 12.9905 30.8421 4.78636 21.5817 3.48337L20.3262 0H18.9206L17.6135 3.35463C7.78175 4.08853 3.79023e-06 12.5682 3.79023e-06 22.8863C-0.00297523 27.7438 1.75022 32.4273 4.91588 36.0186L3.10318 40.6828H9.05556C11.8817 42.4048 15.4841 36.2023 18.9992 36.2023C22.5706 36.2023 26.2381 42.4581 29.096 40.6828H34.9968L33.246 35.8292C36.3113 32.262 38.0029 27.6565 38 22.8863ZM37.1349 22.8863C37.1384 27.2734 35.639 31.5203 32.9024 34.8747L21.9262 4.43868C30.5397 5.88516 37.1349 13.6063 37.1349 22.8863ZM19.369 10.5198L24.8976 28.1901H13.3357L19.369 10.5198ZM0.865083 22.8863C0.865083 13.1865 8.06984 5.1898 17.254 4.28124L5.27619 35.0961C2.42774 31.7096 0.860984 27.3729 0.865083 22.8863ZM19 35.3101C15.5873 35.3101 12.0778 41.5217 9.34762 39.8243L11.927 32.2179H26.4127L28.8206 39.812C26.0563 41.5742 22.481 35.3101 19 35.3101Z" fill="white"/>
</svg>
