<svg width="27" height="27" viewBox="0 0 27 27" fill="none" xmlns="http://www.w3.org/2000/svg">
<path d="M13.5 0C11.7272 0 9.97167 0.349188 8.33377 1.02763C6.69588 1.70606 5.20765 2.70047 3.95406 3.95406C1.42232 6.4858 0 9.91958 0 13.5C0 17.0804 1.42232 20.5142 3.95406 23.0459C5.20765 24.2995 6.69588 25.2939 8.33377 25.9724C9.97167 26.6508 11.7272 27 13.5 27C17.0804 27 20.5142 25.5777 23.0459 23.0459C25.5777 20.5142 27 17.0804 27 13.5C27 11.7272 26.6508 9.97167 25.9724 8.33377C25.2939 6.69588 24.2995 5.20765 23.0459 3.95406C21.7924 2.70047 20.3041 1.70606 18.6662 1.02763C17.0283 0.349188 15.2728 0 13.5 0ZM13.5 8.6265C15.6195 9.99 18.117 10.8 20.817 10.8C21.87 10.8 22.8825 10.6785 23.8545 10.449C24.138 11.4075 24.3 12.4335 24.3 13.5C24.3 19.4535 19.4535 24.3 13.5 24.3C9.45 24.3 5.9265 22.059 4.05 18.7515L6.4125 16.2V14.85C6.4125 14.4024 6.59029 13.9732 6.90676 13.6568C7.22323 13.3403 7.65245 13.1625 8.1 13.1625C8.54755 13.1625 8.97678 13.3403 9.29324 13.6568C9.60971 13.9732 9.7875 14.4024 9.7875 14.85V16.2H13.5V8.6265ZM18.9 13.1625C18.4524 13.1625 18.0232 13.3403 17.7068 13.6568C17.3903 13.9732 17.2125 14.4024 17.2125 14.85C17.2125 15.2976 17.3903 15.7268 17.7068 16.0432C18.0232 16.3597 18.4524 16.5375 18.9 16.5375C19.3476 16.5375 19.7768 16.3597 20.0932 16.0432C20.4097 15.7268 20.5875 15.2976 20.5875 14.85C20.5875 14.4024 20.4097 13.9732 20.0932 13.6568C19.7768 13.3403 19.3476 13.1625 18.9 13.1625Z" fill="#008F82"/>
</svg>
