<svg width="37" height="37" viewBox="0 0 37 37" fill="none" xmlns="http://www.w3.org/2000/svg">
<path d="M37 25.9C37 26.8813 36.6102 27.8224 35.9163 28.5163C35.2224 29.2102 34.2813 29.6 33.3 29.6H11.1C9.0465 29.6 7.4 27.935 7.4 25.9V3.7C7.4 1.6465 9.0465 0 11.1 0H33.3C34.2813 0 35.2224 0.38982 35.9163 1.0837C36.6102 1.77759 37 2.7187 37 3.7V25.9ZM25.9 33.3V37H3.7C2.7187 37 1.77759 36.6102 1.0837 35.9163C0.38982 35.2224 0 34.2813 0 33.3V9.25H3.7V33.3H25.9ZM20.35 22.2L33.3 9.25L30.6915 6.6415L20.35 16.9645L14.6335 11.2665L12.025 13.875L20.35 22.2Z" fill="#008F82"/>
</svg>
